<svg version="1.1" id="Layer_1" xmlns="http://www.w3.org/2000/svg" xmlns:xlink="http://www.w3.org/1999/xlink" x="0px" y="0px"
	 width="100%" viewBox="0 0 150 86" enable-background="new 0 0 150 86" xml:space="preserve">
<path fill="#000000" opacity="1.000000" stroke="none" 
	d="
M1.000000,63.000000 
	C1.000000,42.403667 1.000000,21.807335 1.000000,1.000000 
	C23.020445,1.000000 45.041565,1.000000 67.761101,1.314325 
	C63.169769,6.031776 58.060875,10.495837 55.965252,17.502157 
	C51.423317,32.687260 46.628983,47.796871 42.088085,62.982277 
	C41.035259,66.503098 40.584621,70.204002 39.856892,73.822044 
	C41.560745,72.831749 42.500053,71.548073 43.375031,70.221947 
	C48.436401,62.550888 54.475647,55.537239 62.623859,51.407322 
	C69.846603,47.746471 77.895645,45.656940 85.673752,43.166882 
	C93.894905,40.535000 98.690636,34.946228 99.906937,26.644781 
	C101.323540,16.976301 98.072044,9.108125 89.486397,3.786945 
	C88.471634,3.158018 87.819977,1.943217 87.000000,1.000000 
	C108.262924,1.000000 129.525848,1.000000 151.000000,1.000000 
	C151.000000,23.687124 151.000000,46.374905 150.562027,69.531830 
	C146.902985,69.481934 145.740234,70.778076 145.937592,74.068596 
	C146.195236,78.364861 146.000244,82.688271 146.000000,87.000000 
	C145.250000,87.000000 144.500000,87.000000 143.374023,86.584976 
	C141.279236,82.435829 139.108185,78.972191 139.881760,74.397003 
	C140.476105,70.881905 140.000122,67.185837 140.000122,63.319511 
	C138.176743,63.319511 136.814102,63.319511 135.008316,63.319511 
	C135.008316,69.862862 134.944778,76.130829 135.053604,82.395798 
	C135.080353,83.935547 135.669434,85.465530 136.000000,87.000000 
	C134.285645,87.000000 132.571289,87.000000 130.123367,86.764191 
	C129.490189,85.424171 129.590561,84.319946 129.690933,83.215729 
	C128.564713,83.115753 127.230377,82.577614 126.350204,82.995674 
	C123.377899,84.407463 121.590233,83.427200 119.726242,80.293594 
	C123.799011,80.081352 127.296799,79.899071 130.723846,79.720482 
	C131.213852,72.569359 129.412613,70.186310 123.757835,70.002869 
	C117.087296,69.786469 114.780342,71.920265 115.090431,78.761040 
	C115.215973,81.530525 116.333740,84.255028 117.000000,87.000000 
	C115.933327,87.000000 114.866661,87.000000 113.384705,86.641815 
	C110.911751,83.084145 108.854065,79.884651 106.876961,76.810440 
	C108.931503,74.569412 110.546211,72.808144 112.269272,70.928688 
	C106.295952,67.610298 105.041672,74.109299 100.926277,75.564331 
	C100.926277,71.229408 100.926277,67.345093 100.926277,63.090469 
	C99.070259,63.179535 97.707771,63.244919 96.000000,63.326870 
	C96.000000,71.474548 96.000000,79.237274 96.000000,87.000000 
	C94.933327,87.000000 93.866661,87.000000 92.399780,86.537277 
	C91.999664,83.912743 92.001816,81.750931 91.999466,79.589127 
	C91.990105,70.984612 89.224876,68.561737 80.697311,70.144554 
	C79.370346,70.390854 78.317772,72.115486 77.138306,73.156502 
	C78.552872,73.406479 80.219643,74.258553 81.333961,73.791756 
	C84.478111,72.474678 85.670448,74.028458 87.249069,77.001526 
	C84.812119,77.001526 83.023743,77.084145 81.245483,76.985100 
	C76.942421,76.745453 75.684685,79.168571 76.047363,82.911690 
	C76.181137,84.292267 76.672005,85.638245 77.000000,87.000000 
	C75.611107,87.000000 74.222221,87.000000 72.249275,86.598969 
	C75.759415,74.918259 73.565559,70.758759 63.044128,69.809875 
	C62.772842,69.785416 62.530277,69.442513 62.178917,69.175667 
	C62.041653,67.314972 61.899002,65.381218 61.731129,63.105587 
	C60.063251,63.181538 58.702091,63.243519 57.000000,63.321030 
	C57.000000,71.472946 57.000000,79.236473 57.000000,87.000000 
	C38.333263,87.000000 19.666525,87.000000 1.000000,87.000000 
	C1.000000,83.241882 1.000000,79.600121 1.278688,75.153748 
	C5.140637,75.565704 8.684215,77.630013 12.316463,77.800049 
	C17.758301,78.054787 22.058008,79.967796 25.959864,83.438553 
	C26.664814,84.065613 27.559828,84.478996 28.367094,84.991028 
	C25.249365,78.067680 21.693081,71.724121 17.826996,65.575348 
	C15.838449,62.412693 13.074154,60.006920 8.816736,61.010113 
	C6.200144,61.626667 3.604855,62.333630 1.000000,63.000000 
M36.521099,28.038637 
	C35.572506,27.417109 34.631176,26.784153 33.674149,26.175894 
	C27.040388,21.959661 18.449057,23.871305 14.881286,30.777922 
	C12.171335,36.023933 11.966293,41.395828 18.359705,47.796619 
	C23.320356,52.762993 27.249626,58.151783 28.104767,65.356873 
	C28.464911,68.391319 29.045177,71.399635 29.525381,74.419830 
	C33.446537,64.049698 36.206295,53.498352 39.007561,42.958042 
	C40.353905,37.892162 40.511986,33.029427 36.521099,28.038637 
z"/>
<path fill="#009688" opacity="1.000000" stroke="none" 
	d="
M86.531731,1.000000 
	C87.819977,1.943217 88.471634,3.158018 89.486397,3.786945 
	C98.072044,9.108125 101.323540,16.976301 99.906937,26.644781 
	C98.690636,34.946228 93.894905,40.535000 85.673752,43.166882 
	C77.895645,45.656940 69.846603,47.746471 62.623859,51.407322 
	C54.475647,55.537239 48.436401,62.550888 43.375031,70.221947 
	C42.500053,71.548073 41.560745,72.831749 39.856892,73.822044 
	C40.584621,70.204002 41.035259,66.503098 42.088085,62.982277 
	C46.628983,47.796871 51.423317,32.687260 55.965252,17.502157 
	C58.060875,10.495837 63.169769,6.031776 68.229759,1.314325 
	C74.021156,1.000000 80.042305,1.000000 86.531731,1.000000 
z"/>
<path fill="#F44336" opacity="1.000000" stroke="none" 
	d="
M1.000000,63.460636 
	C3.604855,62.333630 6.200144,61.626667 8.816736,61.010113 
	C13.074154,60.006920 15.838449,62.412693 17.826996,65.575348 
	C21.693081,71.724121 25.249365,78.067680 28.367094,84.991028 
	C27.559828,84.478996 26.664814,84.065613 25.959864,83.438553 
	C22.058008,79.967796 17.758301,78.054787 12.316463,77.800049 
	C8.684215,77.630013 5.140637,75.565704 1.278688,74.674576 
	C1.000000,71.307091 1.000000,67.614182 1.000000,63.460636 
z"/>
<path fill="#009688" opacity="1.000000" stroke="none" 
	d="
M57.466118,87.000000 
	C57.000000,79.236473 57.000000,71.472946 57.000000,63.321030 
	C58.702091,63.243519 60.063251,63.181538 61.731129,63.105587 
	C61.899002,65.381218 62.041653,67.314972 62.178917,69.175667 
	C62.530277,69.442513 62.772842,69.785416 63.044128,69.809875 
	C73.565559,70.758759 75.759415,74.918259 71.832611,86.598969 
	C67.310745,87.000000 62.621487,87.000000 57.466118,87.000000 
M62.026661,80.268234 
	C63.630196,81.143135 65.233734,82.018028 66.837265,82.892929 
	C67.477707,80.135864 68.118149,77.378799 68.757782,74.625237 
	C62.731735,73.112366 61.957397,75.843758 62.026661,80.268234 
z"/>
<path fill="#009688" opacity="1.000000" stroke="none" 
	d="
M96.416664,87.000000 
	C96.000000,79.237274 96.000000,71.474548 96.000000,63.326870 
	C97.707771,63.244919 99.070259,63.179535 100.926277,63.090469 
	C100.926277,67.345093 100.926277,71.229408 100.926277,75.564331 
	C105.041672,74.109299 106.295952,67.610298 112.269272,70.928688 
	C110.546211,72.808144 108.931503,74.569412 106.876961,76.810440 
	C108.854065,79.884651 110.911751,83.084145 112.984711,86.641815 
	C111.285645,87.000000 109.571281,87.000000 107.408279,86.639160 
	C105.801178,84.462578 104.642731,82.646851 103.484276,80.831116 
	C102.943367,80.893990 102.402451,80.956856 101.861534,81.019730 
	C101.574356,83.013153 101.287178,85.006577 101.000000,87.000000 
	C99.611107,87.000000 98.222221,87.000000 96.416664,87.000000 
z"/>
<path fill="#009688" opacity="1.000000" stroke="none" 
	d="
M77.466118,87.000000 
	C76.672005,85.638245 76.181137,84.292267 76.047363,82.911690 
	C75.684685,79.168571 76.942421,76.745453 81.245483,76.985100 
	C83.023743,77.084145 84.812119,77.001526 87.249069,77.001526 
	C85.670448,74.028458 84.478111,72.474678 81.333961,73.791756 
	C80.219643,74.258553 78.552872,73.406479 77.138306,73.156502 
	C78.317772,72.115486 79.370346,70.390854 80.697311,70.144554 
	C89.224876,68.561737 91.990105,70.984612 91.999466,79.589127 
	C92.001816,81.750931 91.999664,83.912743 91.999786,86.537277 
	C87.310745,87.000000 82.621490,87.000000 77.466118,87.000000 
z"/>
<path fill="#009688" opacity="1.000000" stroke="none" 
	d="
M117.463181,87.000000 
	C116.333740,84.255028 115.215973,81.530525 115.090431,78.761040 
	C114.780342,71.920265 117.087296,69.786469 123.757835,70.002869 
	C129.412613,70.186310 131.213852,72.569359 130.723846,79.720482 
	C127.296799,79.899071 123.799011,80.081352 119.726242,80.293594 
	C121.590233,83.427200 123.377899,84.407463 126.350204,82.995674 
	C127.230377,82.577614 128.564713,83.115753 129.690933,83.215729 
	C129.590561,84.319946 129.490189,85.424171 129.694901,86.764191 
	C125.975456,87.000000 121.950912,87.000000 117.463181,87.000000 
z"/>
<path fill="#009688" opacity="1.000000" stroke="none" 
	d="
M136.437500,87.000000 
	C135.669434,85.465530 135.080353,83.935547 135.053604,82.395798 
	C134.944778,76.130829 135.008316,69.862862 135.008316,63.319511 
	C136.814102,63.319511 138.176743,63.319511 140.000122,63.319511 
	C140.000122,67.185837 140.476105,70.881905 139.881760,74.397003 
	C139.108185,78.972191 141.279236,82.435829 142.999023,86.584976 
	C140.958328,87.000000 138.916672,87.000000 136.437500,87.000000 
z"/>
<path fill="#009688" opacity="1.000000" stroke="none" 
	d="
M146.499969,87.000000 
	C146.000244,82.688271 146.195236,78.364861 145.937592,74.068596 
	C145.740234,70.778076 146.902985,69.481934 150.562027,70.000488 
	C151.000000,75.534904 151.000000,81.069809 151.000000,87.000000 
	C149.685440,87.000000 148.342682,87.000000 146.499969,87.000000 
z"/>
<path fill="#000000" opacity="1.000000" stroke="none" 
	d="
M101.428459,87.000000 
	C101.287178,85.006577 101.574356,83.013153 101.861534,81.019730 
	C102.402451,80.956856 102.943367,80.893990 103.484276,80.831116 
	C104.642731,82.646851 105.801178,84.462578 106.979813,86.639160 
	C105.285645,87.000000 103.571281,87.000000 101.428459,87.000000 
z"/>
<path fill="#FF9800" opacity="1.000000" stroke="none" 
	d="
M36.733803,28.363369 
	C40.511986,33.029427 40.353905,37.892162 39.007561,42.958042 
	C36.206295,53.498352 33.446537,64.049698 29.525381,74.419830 
	C29.045177,71.399635 28.464911,68.391319 28.104767,65.356873 
	C27.249626,58.151783 23.320356,52.762993 18.359705,47.796619 
	C11.966293,41.395828 12.171335,36.023933 14.881286,30.777922 
	C18.449057,23.871305 27.040388,21.959661 33.674149,26.175894 
	C34.631176,26.784153 35.572506,27.417109 36.733803,28.363369 
z"/>
<path fill="#000000" opacity="1.000000" stroke="none" 
	d="
M62.017059,79.846489 
	C61.957397,75.843758 62.731735,73.112366 68.757782,74.625237 
	C68.118149,77.378799 67.477707,80.135864 66.837265,82.892929 
	C65.233734,82.018028 63.630196,81.143135 62.017059,79.846489 
z"/>
</svg>