<?xml version="1.0" encoding="UTF-8"?>
<svg version="1.1" xmlns="http://www.w3.org/2000/svg" width="150" height="86">
<path d="M0 0 C5.49265265 3.2829648 10.06404478 8.11536178 12.4765625 14.09375 C13.34883159 21.76160384 13.2811075 28.82283427 8.4765625 35.09375 C2.89146384 40.4280995 -3.12779666 42.59608398 -10.4609375 44.59375 C-18.14468672 46.69555907 -24.12967021 49.30350153 -30.5234375 54.09375 C-31.46280151 54.7741333 -31.46280151 54.7741333 -32.42114258 55.46826172 C-37.76073258 59.4271898 -41.0933503 64.98679981 -44.703125 70.4609375 C-45.30382813 71.32976562 -45.90453125 72.19859375 -46.5234375 73.09375 C-46.8534375 73.09375 -47.1834375 73.09375 -47.5234375 73.09375 C-47.00977452 67.17343077 -46.06073626 61.61854973 -44.44921875 55.90234375 C-44.24290329 55.15396744 -44.03658783 54.40559113 -43.82402039 53.63453674 C-43.38781674 52.05968506 -42.94814071 50.48579134 -42.50512695 48.9128418 C-41.84508792 46.56381561 -41.20010454 44.21103481 -40.55664062 41.85742188 C-38.45466286 34.26342067 -36.17620809 26.77100409 -33.44140625 19.37890625 C-33.20940018 18.74560898 -32.9773941 18.11231171 -32.73835754 17.45982361 C-30.59431326 11.84107975 -28.17186819 5.59944329 -22.9609375 2.21875 C-22.38214844 1.82945313 -21.80335937 1.44015625 -21.20703125 1.0390625 C-15.27365948 -2.29243627 -6.29748725 -2.26163629 0 0 Z " fill="#009688" transform="translate(86.5234375,0.90625)"/>
<path d="M0 0 C3.56891493 2.45858584 5.63489531 4.78895098 6.8125 8.9375 C7.07801717 18.14269315 4.46114311 26.88704035 1.875 35.625 C1.51022276 36.91056784 1.14628592 38.19637445 0.78320312 39.48242188 C-1.22176154 46.39087286 -1.22176154 46.39087286 -2.1875 48.9375 C-3.1775 49.4325 -3.1775 49.4325 -4.1875 49.9375 C-4.27386719 49.11507812 -4.36023437 48.29265625 -4.44921875 47.4453125 C-5.74389066 37.15920354 -8.23959931 29.87158567 -15.4375 22.3125 C-18.00904805 19.55136712 -19.73107668 17.57474862 -20.375 13.8125 C-20.1587528 9.34339125 -19.53739777 6.75608387 -17.1875 2.9375 C-11.97161326 -1.61967939 -6.54169568 -2.18056523 0 0 Z " fill="#FF9800" transform="translate(32.1875,24.0625)"/>
<path d="M0 0 C6.90379842 5.75316535 10.7742842 15.17773053 15 23 C11.59235487 23 11.11847534 22.52080889 8.5 20.5625 C4.1943745 17.72126469 0.56049386 17.48100803 -4.50390625 17.2421875 C-8.07694598 16.89550759 -10.490545 15.509455 -13 13 C-13.52129014 8.78695019 -13.66488173 5.18522395 -11.5625 1.4375 C-7.66685496 -0.74786185 -4.34296725 -1.05907447 0 0 Z " fill="#F44335" transform="translate(13,60)"/>
<path d="M0 0 C1.65 0 3.3 0 5 0 C5 2.31 5 4.62 5 7 C6.258125 6.938125 7.51625 6.87625 8.8125 6.8125 C11.38141453 6.68615994 12.58758971 6.72351866 14.7421875 8.16796875 C16.4718239 10.68722177 16.36547116 12.46841992 16.3125 15.5 C16.30863281 16.4590625 16.30476563 17.418125 16.30078125 18.40625 C16 21 16 21 14 24 C10.7421875 24.29296875 10.7421875 24.29296875 6.875 24.1875 C3.471875 24.0946875 3.471875 24.0946875 0 24 C0 16.08 0 8.16 0 0 Z M6 11 C4.63376326 13.73247348 4.871574 15.98198902 5 19 C6.06645115 20.29633621 6.06645115 20.29633621 8.5625 20.0625 C9.366875 20.041875 10.17125 20.02125 11 20 C11.93380961 15.46859347 11.93380961 15.46859347 11 11 C9.35 11 7.7 11 6 11 Z " fill="#009689" transform="translate(56,62)"/>
<path d="M0 0 C1.65 0 3.3 0 5 0 C5.33 3.96 5.66 7.92 6 12 C6.515625 11.175 7.03125 10.35 7.5625 9.5 C10 7 10 7 13.75 6.6875 C14.8225 6.790625 15.895 6.89375 17 7 C15.35 8.98 13.7 10.96 12 13 C13.25756667 16.48249231 14.7731892 19.06465849 17 22 C17 22.66 17 23.32 17 24 C14.1875 24.3125 14.1875 24.3125 11 24 C9.25 21.5 9.25 21.5 8 19 C7.34 19 6.68 19 6 19 C5.67 20.65 5.34 22.3 5 24 C3.35 24 1.7 24 0 24 C0 16.08 0 8.16 0 0 Z " fill="#009789" transform="translate(95,62)"/>
<path d="M0 0 C1.31291016 -0.05607422 1.31291016 -0.05607422 2.65234375 -0.11328125 C5.0625 0.3125 5.0625 0.3125 6.8671875 1.91015625 C8.45397662 5.09929124 8.3563244 7.51835343 8.25 11.0625 C8.22292969 12.23296875 8.19585937 13.4034375 8.16796875 14.609375 C8.13316406 15.50140625 8.09835938 16.3934375 8.0625 17.3125 C5.77108714 17.36634521 3.47931812 17.40522087 1.1875 17.4375 C-0.08867188 17.46070312 -1.36484375 17.48390625 -2.6796875 17.5078125 C-5.9375 17.3125 -5.9375 17.3125 -7.9375 15.3125 C-8.1875 12.3125 -8.1875 12.3125 -7.9375 9.3125 C-5.9375 7.3125 -5.9375 7.3125 -3.7734375 7.1171875 C-2.55527344 7.15199219 -2.55527344 7.15199219 -1.3125 7.1875 C-0.08660156 7.21457031 -0.08660156 7.21457031 1.1640625 7.2421875 C2.10378906 7.27699219 2.10378906 7.27699219 3.0625 7.3125 C1.73076591 5.73572142 1.73076591 5.73572142 0.0625 4.3125 C-2.49686559 4.64102082 -2.49686559 4.64102082 -4.9375 5.3125 C-5.5975 4.9825 -6.2575 4.6525 -6.9375 4.3125 C-6.9375 3.3225 -6.9375 2.3325 -6.9375 1.3125 C-4.4933206 0.0904103 -2.72720128 0.07608932 0 0 Z M-2.9375 10.3125 C-2.6075 11.6325 -2.2775 12.9525 -1.9375 14.3125 C-0.2875 13.9825 1.3625 13.6525 3.0625 13.3125 C3.0625 12.3225 3.0625 11.3325 3.0625 10.3125 C1.0825 10.3125 -0.8975 10.3125 -2.9375 10.3125 Z " fill="#009688" transform="translate(82.9375,68.6875)"/>
<path d="M0 0 C2.5 1.625 2.5 1.625 4 4 C4.25 7.25 4.25 7.25 4 10 C0.37 10 -3.26 10 -7 10 C-6.01 10.99 -5.02 11.98 -4 13 C-0.85078091 12.76716851 -0.85078091 12.76716851 2 12 C2.99 13.485 2.99 13.485 4 15 C0.80254858 17.13163428 -0.28757916 17.31975564 -4 17.375 C-4.86625 17.40335938 -5.7325 17.43171875 -6.625 17.4609375 C-9 17 -9 17 -10.78515625 15.2578125 C-12.78326223 11.54429078 -12.65503578 8.10338504 -12 4 C-9.22216741 -0.74546401 -5.05407106 -1.01495689 0 0 Z M-6.625 4.4375 C-8.11010465 5.77822672 -8.11010465 5.77822672 -8 7 C-5.69 7 -3.38 7 -1 7 C-1.66 5.68 -2.32 4.36 -3 3 C-5.11192937 2.77914204 -5.11192937 2.77914204 -6.625 4.4375 Z " fill="#00978A" transform="translate(126,69)"/>
<path d="M0 0 C1.65 0 3.3 0 5 0 C5 6.6 5 13.2 5 20 C5.99 20 6.98 20 8 20 C8 21.32 8 22.64 8 24 C5.125 24.125 5.125 24.125 2 24 C0 22 0 22 -0.22705078 19.75341797 C-0.21657715 18.84221191 -0.20610352 17.93100586 -0.1953125 16.9921875 C-0.18886719 16.00605469 -0.18242187 15.01992187 -0.17578125 14.00390625 C-0.15902344 12.97136719 -0.14226562 11.93882813 -0.125 10.875 C-0.11597656 9.83472656 -0.10695312 8.79445313 -0.09765625 7.72265625 C-0.07403747 5.14820908 -0.04110149 2.57421788 0 0 Z " fill="#009688" transform="translate(134,62)"/>
<path d="M0 0 C1.65 0 3.3 0 5 0 C5 5.61 5 11.22 5 17 C3.35 17 1.7 17 0 17 C0 11.39 0 5.78 0 0 Z " fill="#009588" transform="translate(145,69)"/>
<path d="M0 0 C1.98 0.495 1.98 0.495 4 1 C4 2.32 4 3.64 4 5 C2.35 5 0.7 5 -1 5 C-0.67 3.35 -0.34 1.7 0 0 Z " fill="#009688" transform="translate(146,61)"/>
</svg>
