<svg width="50" height="50" viewBox="0 0 50 50" fill="none" xmlns="http://www.w3.org/2000/svg">
<path d="M25.0002 0C15.0153 0 6.89209 8.12324 6.89209 18.108C6.89209 30.4994 23.0971 48.6907 23.787 49.4591C24.4351 50.1809 25.5665 50.1796 26.2134 49.4591C26.9033 48.6907 43.1083 30.4994 43.1083 18.108C43.1081 8.12324 34.985 0 25.0002 0ZM25.0002 27.2187C19.9766 27.2187 15.8897 23.1316 15.8897 18.108C15.8897 13.0844 19.9767 8.99746 25.0002 8.99746C30.0237 8.99746 34.1106 13.0845 34.1106 18.1081C34.1106 23.1317 30.0237 27.2187 25.0002 27.2187Z" fill="#D2483D"/>
</svg>
